<svg width="90" height="90" viewBox="0 0 90 90" fill="none" xmlns="http://www.w3.org/2000/svg">
<g clip-path="url(#clip0_83_846)">
<path d="M73.125 59.0625H67.5V73.125H73.125V59.0625Z" fill="#213E60"/>
<path d="M61.875 45H56.25V73.125H61.875V45Z" fill="#213E60"/>
<path d="M30.9375 73.125C27.2092 73.1206 23.6349 71.6376 20.9987 69.0013C18.3624 66.3651 16.8794 62.7908 16.875 59.0625H22.5C22.5 60.7313 22.9949 62.3626 23.922 63.7501C24.8491 65.1377 26.1669 66.2191 27.7086 66.8577C29.2504 67.4963 30.9469 67.6634 32.5836 67.3379C34.2203 67.0123 35.7237 66.2087 36.9037 65.0287C38.0837 63.8487 38.8873 62.3453 39.2129 60.7086C39.5384 59.0719 39.3713 57.3754 38.7327 55.8336C38.0941 54.2919 37.0127 52.9741 35.6251 52.047C34.2376 51.1198 32.6063 50.625 30.9375 50.625V45C34.6671 45 38.244 46.4816 40.8812 49.1188C43.5184 51.756 45 55.3329 45 59.0625C45 62.7921 43.5184 66.369 40.8812 69.0062C38.244 71.6434 34.6671 73.125 30.9375 73.125Z" fill="#213E60"/>
<path d="M78.75 5.125H11.25C9.75861 5.12649 8.32874 5.7196 7.27417 6.77417C6.2196 7.82874 5.62649 9.25861 5.625 10.75V78.25C5.62671 79.7413 6.21989 81.1711 7.27442 82.2256C8.32894 83.2801 9.75868 83.8733 11.25 83.875H78.75C80.2412 83.873 81.6708 83.2797 82.7253 82.2253C83.7797 81.1708 84.373 79.7412 84.375 78.25V10.75C84.3733 9.25868 83.7801 7.82894 82.7256 6.77442C81.6711 5.71989 80.2413 5.12671 78.75 5.125ZM78.75 30.4375H39.375V10.75H78.75V30.4375ZM33.75 10.75V30.4375H11.25V10.75H33.75ZM11.25 78.25V36.0625H78.752L78.7556 78.25H11.25Z" fill="#213E60"/>
</g>
<defs>
<clipPath id="clip0_83_846">
<rect width="90" height="90" fill="white"/>
</clipPath>
</defs>
</svg>
