<svg width="170" height="80" viewBox="0 0 170 80" fill="none" xmlns="http://www.w3.org/2000/svg">
<path d="M17.1014 26.5439L18.442 27.5158C17.4828 29.5044 16.0005 31.0907 13.995 32.2749C12.0113 33.4368 9.92947 34.0177 7.74957 34.0177C5.56966 34.0177 3.72764 33.3363 2.2235 31.9733C0.741168 30.6104 0 28.6888 0 26.2087C0 23.7063 0.741168 21.4496 2.2235 19.4387C3.72764 17.4278 5.56966 15.8973 7.74957 14.8471C9.92947 13.7747 12.1312 13.2384 14.3547 13.2384C17.0796 13.2384 18.9107 13.9087 19.848 15.2493C20.2404 15.7856 20.4366 16.467 20.4366 17.2937C20.4366 18.0981 20.1641 18.7796 19.6192 19.3382C19.0742 19.8967 18.4202 20.176 17.6572 20.176C16.8943 20.176 16.2512 19.9303 15.728 19.4387C15.2048 18.9248 14.9433 18.2768 14.9433 17.4948C14.9433 16.7128 15.4119 15.9978 16.3493 15.3499C15.5209 15.0817 14.758 14.9477 14.0604 14.9477C12.5563 14.9477 11.172 15.5174 9.90767 16.657C8.64333 17.7965 7.68417 19.1818 7.0302 20.8128C6.37623 22.4215 6.04924 24.0079 6.04924 25.5719C6.04924 27.136 6.40892 28.3984 7.12829 29.3591C7.86946 30.2976 8.92672 30.7668 10.3001 30.7668C11.6734 30.7668 12.9922 30.3758 14.2566 29.5937C15.5209 28.7894 16.4692 27.7728 17.1014 26.5439Z" fill="#FDF8E2"/>
<path d="M40.1539 13.9758H45.2549L42.6717 23.9967C42.2575 25.4044 42.0504 26.6891 42.0504 27.851C42.0504 28.9905 42.2466 29.5602 42.639 29.5602C43.0313 29.5602 43.5654 29.2139 44.2412 28.5213C44.9388 27.8063 45.5273 27.0913 46.0069 26.3763L46.759 25.3038L48.165 26.6444C47.4457 28.0744 46.5301 29.3815 45.4184 30.5657C43.2602 32.867 41.3855 34.0177 39.7942 34.0177C37.9195 34.0177 36.9821 32.5319 36.9821 29.5602C36.9821 29.0687 37.0039 28.7 37.0475 28.4542C36.7205 29.5937 36.0992 30.5992 35.1837 31.4706C33.4398 33.1687 31.4669 34.0177 29.2652 34.0177C27.0853 34.0177 25.3305 33.2581 24.0008 31.7387C22.6928 30.197 22.0389 28.2755 22.0389 25.9741C22.0389 22.3992 23.1724 19.3828 25.4395 16.9251C27.7066 14.4673 30.3661 13.2384 33.418 13.2384C34.9439 13.2384 36.2082 13.6741 37.211 14.5455C38.2138 15.3946 38.8677 16.5117 39.1729 17.897L40.1539 13.9758ZM34.6932 16.1207C33.4289 16.1207 32.2408 16.6681 31.1291 17.7629C30.0391 18.8354 29.1998 20.1425 28.6113 21.6842C28.0227 23.2036 27.7284 24.6894 27.7284 26.1417C27.7284 27.594 28.0336 28.767 28.644 29.6608C29.2761 30.5545 30.2353 31.0014 31.5214 31.0014C32.8294 31.0014 34.0065 30.3981 35.0529 29.1916C37.0366 26.8679 38.0285 24.1085 38.0285 20.9134C38.0285 17.7183 36.9167 16.1207 34.6932 16.1207Z" fill="#FDF8E2"/>
<path d="M70.7598 33.4815H65.9204L66.5416 31.2695C66.7596 30.3981 67.152 29.1245 67.7188 27.4488C68.9831 23.8068 69.6153 20.9692 69.6153 18.936C69.6153 18.0646 69.2556 17.6289 68.5363 17.6289C67.6425 17.6289 66.5852 18.1763 65.3645 19.2711C64.1655 20.3436 63.0102 21.6619 61.8984 23.2259C60.0455 25.8401 58.2144 28.7224 56.4051 31.8728L55.4895 33.4815H50.879C50.879 33.4815 51.2169 32.4313 51.8927 30.3311C53.7892 24.5218 54.7374 21.0809 54.7374 20.0085C54.7374 18.9136 54.5631 18.3662 54.2143 18.3662C53.5821 18.3662 52.83 19.1371 51.9581 20.6788C51.7619 21.0362 51.5984 21.3267 51.4676 21.5501C51.3368 21.7512 51.1842 22.0082 51.0098 22.321C50.8572 22.6115 50.7591 22.7902 50.7155 22.8572L48.5247 21.5501C50.225 18.7125 51.7837 16.6234 53.2006 15.2828C54.6175 13.9199 56.0672 13.2384 57.5495 13.2384C58.2253 13.2384 58.803 13.5289 59.2826 14.1098C59.7839 14.6907 60.0346 15.3834 60.0346 16.1877C60.0346 16.9698 59.991 17.6736 59.9038 18.2992C59.8166 18.9025 59.7185 19.461 59.6095 19.9749C59.5005 20.4888 59.3479 21.1033 59.1518 21.8183C58.9556 22.5333 58.7921 23.0807 58.6613 23.4605C58.5523 23.8403 58.3997 24.3542 58.2035 25.0022C58.0073 25.6501 57.8874 26.03 57.8438 26.1417C58.2798 25.3597 58.9883 24.1867 59.9692 22.6226C60.9502 21.0586 61.5933 20.0755 61.8984 19.6733C62.2254 19.2488 62.6505 18.7125 63.1737 18.0646C63.6969 17.3943 64.1546 16.8692 64.547 16.4894C64.9612 16.1095 65.4517 15.685 66.0185 15.2158C66.5852 14.7466 67.1193 14.3891 67.6207 14.1433C68.8414 13.5401 70.0731 13.2384 71.3156 13.2384C72.58 13.2384 73.5391 13.6071 74.1931 14.3444C74.8471 15.0594 75.1741 15.9085 75.1741 16.8916C75.1741 17.8523 75.0215 18.8578 74.7163 19.9079C74.4329 20.958 74.0296 22.1869 73.5064 23.5946C72.9833 24.9798 72.6454 25.9183 72.4928 26.4098C74.5855 22.9243 76.1877 20.4665 77.2995 19.0365C80.3295 15.1711 83.3269 13.2384 86.2916 13.2384C87.7521 13.2384 88.7985 13.5959 89.4307 14.3109C90.0628 15.0259 90.3789 15.9978 90.3789 17.2267C90.3789 18.4556 89.8666 20.5 88.8421 23.36C87.8175 26.1976 87.3052 27.9403 87.3052 28.5883C87.3052 29.2363 87.5014 29.5602 87.8938 29.5602C88.7658 29.5602 90.15 28.1414 92.0465 25.3038L93.4526 26.6444C92.1664 28.9905 90.7495 30.8115 89.2018 32.1074C87.654 33.3809 86.3243 34.0177 85.2125 34.0177C84.1226 34.0177 83.3596 33.6491 82.9236 32.9117C82.4876 32.1744 82.2697 31.303 82.2697 30.2976C82.2697 29.2698 82.7056 27.4711 83.5776 24.9016C84.4496 22.3098 84.8856 20.3213 84.8856 18.936C84.8856 18.0646 84.5041 17.6289 83.7411 17.6289C81.5612 17.6289 78.4112 20.9022 74.2912 27.4488C72.6127 30.1076 71.4355 32.1185 70.7598 33.4815Z" fill="#FDF8E2"/>
<path d="M117.715 27.0466C116.734 29.0575 115.339 30.7221 113.53 32.0403C111.742 33.3586 109.682 34.0177 107.349 34.0177C105.017 34.0177 103.153 33.1017 101.758 31.2695C100.733 35.403 99.8615 38.3523 99.1421 40.1175C96.875 45.5916 93.7687 48.3398 89.823 48.3621C88.8639 48.3621 88.0573 48.027 87.4033 47.3567C86.7494 46.6864 86.4224 45.9044 86.4224 45.0106C86.4224 44.1393 86.6404 43.4466 87.0764 42.9327C87.5123 42.4412 88.09 42.1954 88.8094 42.1954C89.5287 42.1954 90.1282 42.363 90.6078 42.6981C91.0874 43.0556 91.3272 43.5918 91.3272 44.3068C91.3272 45.0442 90.9457 45.8262 90.1827 46.6529L90.3789 46.921C91.7305 46.921 92.9621 44.8989 94.0739 40.8548C94.5098 39.2237 94.8259 37.9501 95.0221 37.0341C95.2183 36.118 95.3382 35.5706 95.3818 35.3918L98.8151 21.5501C97.747 22.2651 96.3846 23.6504 94.7278 25.706L93.4526 24.1978C94.4117 22.8349 95.5453 21.5055 96.8532 20.2095C98.1612 18.9136 98.9895 18.0869 99.3383 17.7294C101.039 12.5681 102.684 8.70273 104.276 6.13324C105.933 3.54142 107.764 1.497 109.769 0L110.652 0.80436C109.279 2.48011 108.112 4.6139 107.153 7.20573C106.194 9.79755 105.573 12.2888 105.289 14.6796C107.622 13.7188 109.835 13.2384 111.927 13.2384C114.042 13.2384 115.786 13.9199 117.159 15.2828C118.532 16.6458 119.219 18.4444 119.219 20.6788C119.219 22.9131 118.718 25.0357 117.715 27.0466ZM104.962 17.6959L102.477 28.957C102.87 29.8284 103.524 30.4875 104.439 30.9343C105.355 31.3812 106.412 31.6046 107.611 31.6046C108.81 31.6046 109.911 31.0796 110.914 30.0294C112.788 28.0632 113.726 25.5049 113.726 22.3545C113.726 19.5392 112.985 17.6401 111.502 16.657C110.914 16.2548 110.129 16.0537 109.148 16.0537C108.189 16.0537 106.794 16.6011 104.962 17.6959Z" fill="#FDF8E2"/>
<path d="M147.7 13.9758C144.778 21.9523 143.318 26.7897 143.318 28.4878C143.318 29.2027 143.492 29.5602 143.841 29.5602C144.8 29.5602 146.195 28.1303 148.027 25.2703L149.433 26.6444C148.277 28.767 146.904 30.5322 145.313 31.9398C143.743 33.3251 142.468 34.0177 141.487 34.0177C139.46 34.0177 138.446 32.9676 138.446 30.8673C138.446 29.2363 138.816 27.2477 139.558 24.9016C140.299 22.5556 140.669 21.3714 140.669 21.3491C140.56 21.5501 140.299 22.0194 139.885 22.7567C139.47 23.4717 139.165 24.0079 138.969 24.3654C138.773 24.7229 138.446 25.2703 137.988 26.0076C137.552 26.7226 137.182 27.2924 136.876 27.7169C136.593 28.1191 136.201 28.6442 135.699 29.2921C135.22 29.9401 134.784 30.454 134.391 30.8338C134.021 31.2136 133.574 31.6382 133.051 32.1074C132.527 32.5542 132.026 32.9006 131.546 33.1463C130.456 33.7273 129.388 34.0177 128.342 34.0177C125.748 34.0177 124.451 32.5542 124.451 29.6273C124.451 28.2867 124.92 26.2087 125.857 23.3935C126.794 20.5559 127.263 18.8913 127.263 18.3997C127.263 17.8858 127.11 17.6289 126.805 17.6289C125.933 17.6289 124.723 19.0477 123.176 21.8853L121.05 20.5782C124.037 15.685 126.914 13.2384 129.683 13.2384C130.598 13.2384 131.328 13.5065 131.873 14.0428C132.418 14.5567 132.669 15.361 132.626 16.4559C132.604 17.5283 132.07 19.461 131.023 22.254C129.999 25.0245 129.486 27.1472 129.486 28.6218C129.486 29.4262 129.846 29.8284 130.565 29.8284C131.394 29.8284 132.375 29.2921 133.508 28.2196C134.664 27.1248 135.775 25.7954 136.844 24.2313C138.544 21.7736 140.31 18.8913 142.141 15.5845L143.024 13.9758H147.7Z" fill="#FDF8E2"/>
<path d="M154.207 33.2469C152.79 32.733 151.776 32.1297 151.166 31.4371C150.555 30.7221 150.25 29.9401 150.25 29.091C150.25 28.242 150.479 27.5382 150.937 26.9796C151.395 26.421 151.994 26.1417 152.735 26.1417C153.498 26.1417 154.163 26.3763 154.73 26.8455C155.318 27.2924 155.613 27.9403 155.613 28.7894C155.613 29.6161 155.111 30.3087 154.108 30.8673C154.937 31.6046 156.201 31.9733 157.902 31.9733C161.586 31.9733 163.428 30.9008 163.428 28.7559C163.428 27.4153 162.261 26.3428 159.929 25.5384C158.97 25.2033 158 24.8458 157.019 24.466C156.059 24.0861 155.22 23.5275 154.501 22.7902C153.781 22.0529 153.389 21.1591 153.324 20.109C153.324 18.5897 153.814 17.3049 154.795 16.2548C156.648 14.2439 159.417 13.2384 163.101 13.2384C164.91 13.2384 166.512 13.5959 167.907 14.3109C169.302 15.0035 170 15.9085 170 17.0256C170 18.1428 169.717 18.9471 169.15 19.4387C168.605 19.9303 167.962 20.176 167.221 20.176C166.479 20.176 165.847 19.9749 165.324 19.5728C164.823 19.1482 164.572 18.5673 164.572 17.83C164.572 17.0926 164.997 16.4559 165.847 15.9196C165.324 15.5398 164.419 15.3499 163.133 15.3499C161.847 15.3499 160.692 15.551 159.667 15.9531C158.643 16.333 158.13 16.858 158.13 17.5283C158.13 18.1986 158.501 18.7572 159.242 19.2041C160.005 19.651 160.921 20.0643 161.989 20.4441C163.057 20.824 164.125 21.2597 165.193 21.7512C166.261 22.2428 167.166 22.9466 167.907 23.8627C168.67 24.7788 169.052 25.9071 169.052 27.2477C169.052 28.5883 168.518 29.806 167.449 30.9008C165.422 32.9788 162.654 34.0177 159.144 34.0177C157.291 34.0177 155.645 33.7608 154.207 33.2469Z" fill="#FDF8E2"/>
<path d="M115.083 76.6712C115.083 75.7029 115.464 74.1482 116.227 72.007C116.99 69.8657 117.372 68.339 117.372 67.4266C117.372 66.4956 117.054 66.0301 116.418 66.0301C115.8 66.0301 115.046 66.4863 114.156 67.3987C113.266 68.2924 112.412 69.3909 111.595 70.6943C110.251 72.7983 108.897 75.2002 107.535 77.9L106.826 79.2406H102.902C103.793 72.5004 104.646 67.5104 105.464 64.2706C106.281 61.0308 107.062 58.2658 107.807 55.9756C108.552 53.6854 109.351 51.6559 110.205 49.8871C112.131 45.828 114.347 42.821 116.854 40.866L118.925 41.8435C116.981 43.8358 115.192 47.3455 113.557 52.3728C111.94 57.3814 110.142 64.2985 108.161 73.1241C108.271 72.938 108.488 72.5469 108.815 71.9511C109.161 71.3367 109.424 70.8805 109.606 70.5826C109.787 70.2661 110.06 69.8006 110.423 69.1861C110.805 68.5717 111.123 68.0876 111.377 67.7338C111.631 67.3614 111.958 66.9052 112.358 66.3653C112.776 65.8253 113.139 65.3971 113.448 65.0805C113.775 64.7454 114.156 64.3916 114.592 64.0192C115.028 63.6282 115.446 63.321 115.846 63.0976C116.772 62.6135 117.762 62.3714 118.816 62.3714C119.869 62.3714 120.66 62.6693 121.186 63.2651C121.731 63.861 122.004 64.6616 122.004 65.6671C122.004 66.6725 121.55 68.3669 120.641 70.7502C119.733 73.1148 119.279 74.5765 119.279 75.135C119.279 75.6936 119.424 75.9729 119.715 75.9729C120.478 75.9729 121.632 74.7906 123.176 72.4259L124.347 73.5431C123.185 75.5912 121.968 77.1273 120.696 78.1514C119.443 79.1755 118.407 79.6875 117.59 79.6875C116.79 79.6875 116.173 79.4268 115.737 78.9055C115.301 78.3841 115.083 77.6394 115.083 76.6712Z" fill="#A3B565"/>
<path d="M147.318 62.9859C144.884 69.633 143.667 73.6641 143.667 75.0792C143.667 75.675 143.812 75.9729 144.103 75.9729C144.902 75.9729 146.065 74.7813 147.591 72.398L148.762 73.5431C147.799 75.3119 146.655 76.7829 145.329 77.9559C144.021 79.1103 142.958 79.6875 142.141 79.6875C140.451 79.6875 139.607 78.8124 139.607 77.0622C139.607 75.7029 139.915 74.0458 140.533 72.0908C141.151 70.1357 141.46 69.1489 141.46 69.1303C141.369 69.2979 141.151 69.6889 140.806 70.3033C140.46 70.8991 140.206 71.346 140.043 71.6439C139.879 71.9418 139.607 72.398 139.225 73.0124C138.862 73.6083 138.553 74.083 138.299 74.4368C138.063 74.772 137.736 75.2095 137.318 75.7495C136.918 76.2894 136.555 76.7177 136.228 77.0342C135.919 77.3508 135.547 77.7045 135.111 78.0955C134.675 78.4679 134.257 78.7565 133.857 78.9613C132.949 79.4454 132.059 79.6875 131.187 79.6875C129.025 79.6875 127.944 78.4679 127.944 76.0288C127.944 74.9116 128.335 73.18 129.116 70.834C129.897 68.4693 130.288 67.0821 130.288 66.6725C130.288 66.2443 130.16 66.0301 129.906 66.0301C129.179 66.0301 128.171 67.2125 126.881 69.5771L125.11 68.4879C127.599 64.4102 129.997 62.3714 132.304 62.3714C133.067 62.3714 133.675 62.5948 134.13 63.0417C134.584 63.47 134.793 64.1403 134.756 65.0526C134.738 65.9464 134.293 67.5569 133.421 69.8844C132.567 72.1932 132.14 73.962 132.14 75.1909C132.14 75.8612 132.44 76.1964 133.04 76.1964C133.73 76.1964 134.547 75.7495 135.492 74.8558C136.455 73.9434 137.381 72.8355 138.271 71.5322C139.688 69.484 141.16 67.0821 142.686 64.3265L143.421 62.9859H147.318Z" fill="#A3B565"/>
<path d="M166.065 75.9729C165.175 77.0715 163.994 77.9652 162.523 78.6541C161.051 79.343 159.353 79.6875 157.427 79.6875C155.502 79.6875 153.867 79.101 152.523 77.928C151.196 76.7549 150.533 75.2654 150.533 73.4593C150.533 73.2545 150.57 72.8728 150.642 72.3142C151.387 67.1938 152.741 61.5894 154.702 55.5008C156.664 49.3937 158.772 44.8412 161.024 41.8435H165.657C164.294 43.4075 162.659 46.7311 160.752 51.8142C158.862 56.8973 157.337 61.9059 156.174 66.8401C158.372 63.861 160.843 62.3714 163.586 62.3714C165.293 62.3714 166.601 62.9672 167.509 64.1589C168.436 65.3319 168.899 66.6818 168.899 68.2086C168.899 69.7354 168.654 71.1412 168.163 72.4259C167.673 73.692 166.974 74.8744 166.065 75.9729ZM155.329 72.3142C155.184 73.0962 155.111 73.8596 155.111 74.6044C155.111 75.3306 155.375 76.0753 155.901 76.8387C156.428 77.5835 157.237 77.9559 158.327 77.9559C159.417 77.9559 160.416 77.4718 161.324 76.5036C163.068 74.623 163.94 72.1373 163.94 69.0465C163.94 67.7804 163.731 66.747 163.313 65.9464C162.895 65.1271 162.25 64.7175 161.378 64.7175C160.507 64.7175 159.417 65.4343 158.109 66.868C156.819 68.3017 155.892 70.1171 155.329 72.3142Z" fill="#A3B565"/>
</svg>
